<?xml version="1.0" encoding="UTF-8" standalone="no"?>
<!DOCTYPE svg PUBLIC "-//W3C//DTD SVG 1.1//EN"
 "http://www.w3.org/Graphics/SVG/1.1/DTD/svg11.dtd">
<!-- Generated by graphviz version 2.40.1 (20161225.0304)
 -->
<!-- Title: dependencies Pages: 1 -->
<svg width="4329pt" height="284pt"
 viewBox="0.00 0.00 4329.00 284.00" xmlns="http://www.w3.org/2000/svg" xmlns:xlink="http://www.w3.org/1999/xlink">
<g id="graph0" class="graph" transform="scale(1 1) rotate(0) translate(4 280)">
<title>dependencies</title>
<polygon fill="#ffffff" stroke="transparent" points="-4,4 -4,-280 4325,-280 4325,4 -4,4"/>
<text text-anchor="start" x="2139.5091" y="-42.4" font-family="sans-serif" font-weight="bold" font-size="14.00" fill="#000000">Legend</text>
<polygon fill="#ffffb3" stroke="transparent" points="1926.5,-10 1926.5,-30 1946.5,-30 1946.5,-10 1926.5,-10"/>
<text text-anchor="start" x="1950.129" y="-15.4" font-family="sans-serif" font-size="14.00" fill="#000000"> &#160;Declarations</text>
<polygon fill="#8dd3c7" stroke="transparent" points="2039.5,-10 2039.5,-30 2059.5,-30 2059.5,-10 2039.5,-10"/>
<text text-anchor="start" x="2063.2251" y="-15.4" font-family="sans-serif" font-size="14.00" fill="#000000"> &#160;Module</text>
<polygon fill="#80b1d3" stroke="transparent" points="2125.5,-10 2125.5,-30 2145.5,-30 2145.5,-10 2125.5,-10"/>
<text text-anchor="start" x="2149.2812" y="-15.4" font-family="sans-serif" font-size="14.00" fill="#000000"> &#160;Bootstrap</text>
<polygon fill="#fdb462" stroke="transparent" points="2222.5,-10 2222.5,-30 2242.5,-30 2242.5,-10 2222.5,-10"/>
<text text-anchor="start" x="2246.1732" y="-15.4" font-family="sans-serif" font-size="14.00" fill="#000000"> &#160;Providers</text>
<polygon fill="#fb8072" stroke="transparent" points="2318.5,-10 2318.5,-30 2338.5,-30 2338.5,-10 2318.5,-10"/>
<text text-anchor="start" x="2342.2258" y="-15.4" font-family="sans-serif" font-size="14.00" fill="#000000"> &#160;Exports</text>
<g id="clust1" class="cluster">
<title>cluster_AppModule</title>
<polygon fill="none" stroke="#000000" stroke-dasharray="1,5" points="8,-70 8,-268 4313,-268 4313,-70 8,-70"/>
</g>
<g id="clust2" class="cluster">
<title>cluster_AppModule_declarations</title>
<polygon fill="none" stroke="#000000" points="1451,-78 1451,-130 4305,-130 4305,-78 1451,-78"/>
</g>
<g id="clust21" class="cluster">
<title>cluster_AppModule_imports</title>
<polygon fill="none" stroke="#000000" points="563,-78 563,-130 1443,-130 1443,-78 563,-78"/>
</g>
<g id="clust23" class="cluster">
<title>cluster_AppModule_bootstrap</title>
<polygon fill="none" stroke="#000000" points="2001,-208 2001,-260 2125,-260 2125,-208 2001,-208"/>
</g>
<g id="clust24" class="cluster">
<title>cluster_AppModule_providers</title>
<polygon fill="none" stroke="#000000" points="16,-78 16,-130 555,-130 555,-78 16,-78"/>
</g>
<!-- AppComponent -->
<g id="node1" class="node">
<title>AppComponent</title>
<polygon fill="#ffffb3" stroke="#000000" points="4296.9399,-122 4191.0601,-122 4191.0601,-86 4296.9399,-86 4296.9399,-122"/>
<text text-anchor="middle" x="4244" y="-99.8" font-family="Times,serif" font-size="14.00" fill="#000000">AppComponent</text>
</g>
<!-- AppModule -->
<g id="node19" class="node">
<title>AppModule</title>
<polygon fill="#8dd3c7" stroke="#000000" points="2104.6571,-187 2101.6571,-191 2080.6571,-191 2077.6571,-187 2021.3429,-187 2021.3429,-151 2104.6571,-151 2104.6571,-187"/>
<text text-anchor="middle" x="2063" y="-164.8" font-family="Times,serif" font-size="14.00" fill="#000000">AppModule</text>
</g>
<!-- AppComponent&#45;&gt;AppModule -->
<g id="edge1" class="edge">
<title>AppComponent&#45;&gt;AppModule</title>
<path fill="none" stroke="#000000" d="M4244,-122.3802C4244,-146.2785 4244,-185 4244,-185 4244,-185 2115.1033,-185 2115.1033,-185"/>
<polygon fill="#000000" stroke="#000000" points="2115.1033,-181.5001 2105.1033,-185 2115.1033,-188.5001 2115.1033,-181.5001"/>
</g>
<!-- HeaderComponent -->
<g id="node2" class="node">
<title>HeaderComponent</title>
<polygon fill="#ffffb3" stroke="#000000" points="4172.7437,-122 4051.2563,-122 4051.2563,-86 4172.7437,-86 4172.7437,-122"/>
<text text-anchor="middle" x="4112" y="-99.8" font-family="Times,serif" font-size="14.00" fill="#000000">HeaderComponent</text>
</g>
<!-- HeaderComponent&#45;&gt;AppModule -->
<g id="edge2" class="edge">
<title>HeaderComponent&#45;&gt;AppModule</title>
<path fill="none" stroke="#000000" d="M4112,-122.0908C4112,-145.1328 4112,-182 4112,-182 4112,-182 2114.858,-182 2114.858,-182"/>
<polygon fill="#000000" stroke="#000000" points="2114.8581,-178.5001 2104.858,-182 2114.858,-185.5001 2114.8581,-178.5001"/>
</g>
<!-- OrderModuleComponent -->
<g id="node3" class="node">
<title>OrderModuleComponent</title>
<polygon fill="#ffffb3" stroke="#000000" points="4032.5253,-122 3875.4747,-122 3875.4747,-86 4032.5253,-86 4032.5253,-122"/>
<text text-anchor="middle" x="3954" y="-99.8" font-family="Times,serif" font-size="14.00" fill="#000000">OrderModuleComponent</text>
</g>
<!-- OrderModuleComponent&#45;&gt;AppModule -->
<g id="edge3" class="edge">
<title>OrderModuleComponent&#45;&gt;AppModule</title>
<path fill="none" stroke="#000000" d="M3954,-122.0109C3954,-144.4852 3954,-180 3954,-180 3954,-180 2114.7001,-180 2114.7001,-180"/>
<polygon fill="#000000" stroke="#000000" points="2114.7001,-176.5001 2104.7001,-180 2114.7,-183.5001 2114.7001,-176.5001"/>
</g>
<!-- OrderListComponent -->
<g id="node4" class="node">
<title>OrderListComponent</title>
<polygon fill="#ffffb3" stroke="#000000" points="3856.7534,-122 3721.2466,-122 3721.2466,-86 3856.7534,-86 3856.7534,-122"/>
<text text-anchor="middle" x="3789" y="-99.8" font-family="Times,serif" font-size="14.00" fill="#000000">OrderListComponent</text>
</g>
<!-- OrderListComponent&#45;&gt;AppModule -->
<g id="edge4" class="edge">
<title>OrderListComponent&#45;&gt;AppModule</title>
<path fill="none" stroke="#000000" d="M3789,-122.0449C3789,-143.6623 3789,-177 3789,-177 3789,-177 2114.8102,-177 2114.8102,-177"/>
<polygon fill="#000000" stroke="#000000" points="2114.8102,-173.5001 2104.8102,-177 2114.8102,-180.5001 2114.8102,-173.5001"/>
</g>
<!-- OrderItemComponent -->
<g id="node5" class="node">
<title>OrderItemComponent</title>
<polygon fill="#ffffb3" stroke="#000000" points="3702.6317,-122 3563.3683,-122 3563.3683,-86 3702.6317,-86 3702.6317,-122"/>
<text text-anchor="middle" x="3633" y="-99.8" font-family="Times,serif" font-size="14.00" fill="#000000">OrderItemComponent</text>
</g>
<!-- OrderItemComponent&#45;&gt;AppModule -->
<g id="edge5" class="edge">
<title>OrderItemComponent&#45;&gt;AppModule</title>
<path fill="none" stroke="#000000" d="M3633,-122.2843C3633,-143.3211 3633,-175 3633,-175 3633,-175 2114.9937,-175 2114.9937,-175"/>
<polygon fill="#000000" stroke="#000000" points="2114.9937,-171.5001 2104.9937,-175 2114.9937,-178.5001 2114.9937,-171.5001"/>
</g>
<!-- OrderDetailComponent -->
<g id="node6" class="node">
<title>OrderDetailComponent</title>
<polygon fill="#ffffb3" stroke="#000000" points="3545.1825,-122 3396.8175,-122 3396.8175,-86 3545.1825,-86 3545.1825,-122"/>
<text text-anchor="middle" x="3471" y="-99.8" font-family="Times,serif" font-size="14.00" fill="#000000">OrderDetailComponent</text>
</g>
<!-- OrderDetailComponent&#45;&gt;AppModule -->
<g id="edge6" class="edge">
<title>OrderDetailComponent&#45;&gt;AppModule</title>
<path fill="none" stroke="#000000" d="M3471,-122.2228C3471,-142.3652 3471,-172 3471,-172 3471,-172 2114.7566,-172 2114.7566,-172"/>
<polygon fill="#000000" stroke="#000000" points="2114.7567,-168.5001 2104.7566,-172 2114.7566,-175.5001 2114.7567,-168.5001"/>
</g>
<!-- OrderHistoryComponent -->
<g id="node7" class="node">
<title>OrderHistoryComponent</title>
<polygon fill="#ffffb3" stroke="#000000" points="3378.9678,-122 3223.0322,-122 3223.0322,-86 3378.9678,-86 3378.9678,-122"/>
<text text-anchor="middle" x="3301" y="-99.8" font-family="Times,serif" font-size="14.00" fill="#000000">OrderHistoryComponent</text>
</g>
<!-- OrderHistoryComponent&#45;&gt;AppModule -->
<g id="edge7" class="edge">
<title>OrderHistoryComponent&#45;&gt;AppModule</title>
<path fill="none" stroke="#000000" d="M3301,-122.1061C3301,-141.3391 3301,-169 3301,-169 3301,-169 2114.8999,-169 2114.8999,-169"/>
<polygon fill="#000000" stroke="#000000" points="2114.8999,-165.5001 2104.8999,-169 2114.8998,-172.5001 2114.8999,-165.5001"/>
</g>
<!-- OrderHistoryItemComponent -->
<g id="node8" class="node">
<title>OrderHistoryItemComponent</title>
<polygon fill="#ffffb3" stroke="#000000" points="3204.6246,-122 3023.3754,-122 3023.3754,-86 3204.6246,-86 3204.6246,-122"/>
<text text-anchor="middle" x="3114" y="-99.8" font-family="Times,serif" font-size="14.00" fill="#000000">OrderHistoryItemComponent</text>
</g>
<!-- OrderHistoryItemComponent&#45;&gt;AppModule -->
<g id="edge8" class="edge">
<title>OrderHistoryItemComponent&#45;&gt;AppModule</title>
<path fill="none" stroke="#000000" d="M3114,-122.2222C3114,-140.8285 3114,-167 3114,-167 3114,-167 2114.849,-167 2114.849,-167"/>
<polygon fill="#000000" stroke="#000000" points="2114.849,-163.5001 2104.849,-167 2114.849,-170.5001 2114.849,-163.5001"/>
</g>
<!-- OrderAddComponent -->
<g id="node9" class="node">
<title>OrderAddComponent</title>
<polygon fill="#ffffb3" stroke="#000000" points="3005.0814,-122 2866.9186,-122 2866.9186,-86 3005.0814,-86 3005.0814,-122"/>
<text text-anchor="middle" x="2936" y="-99.8" font-family="Times,serif" font-size="14.00" fill="#000000">OrderAddComponent</text>
</g>
<!-- OrderAddComponent&#45;&gt;AppModule -->
<g id="edge9" class="edge">
<title>OrderAddComponent&#45;&gt;AppModule</title>
<path fill="none" stroke="#000000" d="M2936,-122.002C2936,-139.6754 2936,-164 2936,-164 2936,-164 2114.8125,-164 2114.8125,-164"/>
<polygon fill="#000000" stroke="#000000" points="2114.8125,-160.5001 2104.8125,-164 2114.8125,-167.5001 2114.8125,-160.5001"/>
</g>
<!-- CreateUserComponent -->
<g id="node10" class="node">
<title>CreateUserComponent</title>
<polygon fill="#ffffb3" stroke="#000000" points="2849.2907,-122 2704.7093,-122 2704.7093,-86 2849.2907,-86 2849.2907,-122"/>
<text text-anchor="middle" x="2777" y="-99.8" font-family="Times,serif" font-size="14.00" fill="#000000">CreateUserComponent</text>
</g>
<!-- CreateUserComponent&#45;&gt;AppModule -->
<g id="edge10" class="edge">
<title>CreateUserComponent&#45;&gt;AppModule</title>
<path fill="none" stroke="#000000" d="M2777,-122.0336C2777,-139.0597 2777,-162 2777,-162 2777,-162 2114.7357,-162 2114.7357,-162"/>
<polygon fill="#000000" stroke="#000000" points="2114.7358,-158.5001 2104.7357,-162 2114.7357,-165.5001 2114.7358,-158.5001"/>
</g>
<!-- IntroPageComponent -->
<g id="node11" class="node">
<title>IntroPageComponent</title>
<polygon fill="#ffffb3" stroke="#000000" points="2686.7562,-122 2551.2438,-122 2551.2438,-86 2686.7562,-86 2686.7562,-122"/>
<text text-anchor="middle" x="2619" y="-99.8" font-family="Times,serif" font-size="14.00" fill="#000000">IntroPageComponent</text>
</g>
<!-- IntroPageComponent&#45;&gt;AppModule -->
<g id="edge11" class="edge">
<title>IntroPageComponent&#45;&gt;AppModule</title>
<path fill="none" stroke="#000000" d="M2619,-122.0091C2619,-138.0494 2619,-159 2619,-159 2619,-159 2114.7904,-159 2114.7904,-159"/>
<polygon fill="#000000" stroke="#000000" points="2114.7904,-155.5001 2104.7904,-159 2114.7903,-162.5001 2114.7904,-155.5001"/>
</g>
<!-- UserLoginComponent -->
<g id="node12" class="node">
<title>UserLoginComponent</title>
<polygon fill="#ffffb3" stroke="#000000" points="2533.7021,-122 2392.2979,-122 2392.2979,-86 2533.7021,-86 2533.7021,-122"/>
<text text-anchor="middle" x="2463" y="-99.8" font-family="Times,serif" font-size="14.00" fill="#000000">UserLoginComponent</text>
</g>
<!-- UserLoginComponent&#45;&gt;AppModule -->
<g id="edge12" class="edge">
<title>UserLoginComponent&#45;&gt;AppModule</title>
<path fill="none" stroke="#000000" d="M2463,-122.2396C2463,-137.5706 2463,-157 2463,-157 2463,-157 2114.675,-157 2114.675,-157"/>
<polygon fill="#000000" stroke="#000000" points="2114.6751,-153.5001 2104.675,-157 2114.675,-160.5001 2114.6751,-153.5001"/>
</g>
<!-- HelpPageComponent -->
<g id="node13" class="node">
<title>HelpPageComponent</title>
<polygon fill="#ffffb3" stroke="#000000" points="2374.7562,-122 2239.2438,-122 2239.2438,-86 2374.7562,-86 2374.7562,-122"/>
<text text-anchor="middle" x="2307" y="-99.8" font-family="Times,serif" font-size="14.00" fill="#000000">HelpPageComponent</text>
</g>
<!-- HelpPageComponent&#45;&gt;AppModule -->
<g id="edge13" class="edge">
<title>HelpPageComponent&#45;&gt;AppModule</title>
<path fill="none" stroke="#000000" d="M2307,-122.0511C2307,-136.373 2307,-154 2307,-154 2307,-154 2114.6679,-154 2114.6679,-154"/>
<polygon fill="#000000" stroke="#000000" points="2114.6679,-150.5001 2104.6679,-154 2114.6678,-157.5001 2114.6679,-150.5001"/>
</g>
<!-- ProfilePageComponent -->
<g id="node14" class="node">
<title>ProfilePageComponent</title>
<polygon fill="#ffffb3" stroke="#000000" points="2221.1442,-122 2074.8558,-122 2074.8558,-86 2221.1442,-86 2221.1442,-122"/>
<text text-anchor="middle" x="2148" y="-99.8" font-family="Times,serif" font-size="14.00" fill="#000000">ProfilePageComponent</text>
</g>
<!-- ProfilePageComponent&#45;&gt;AppModule -->
<g id="edge14" class="edge">
<title>ProfilePageComponent&#45;&gt;AppModule</title>
<path fill="none" stroke="#000000" d="M2089.7532,-122.1061C2089.7532,-122.1061 2089.7532,-140.991 2089.7532,-140.991"/>
<polygon fill="#000000" stroke="#000000" points="2086.2532,-140.9909 2089.7532,-150.991 2093.2532,-140.991 2086.2532,-140.9909"/>
</g>
<!-- EditPasswordComponent -->
<g id="node15" class="node">
<title>EditPasswordComponent</title>
<polygon fill="#ffffb3" stroke="#000000" points="2057.3201,-122 1898.6799,-122 1898.6799,-86 2057.3201,-86 2057.3201,-122"/>
<text text-anchor="middle" x="1978" y="-99.8" font-family="Times,serif" font-size="14.00" fill="#000000">EditPasswordComponent</text>
</g>
<!-- EditPasswordComponent&#45;&gt;AppModule -->
<g id="edge15" class="edge">
<title>EditPasswordComponent&#45;&gt;AppModule</title>
<path fill="none" stroke="#000000" d="M2039.1659,-122.1061C2039.1659,-122.1061 2039.1659,-140.991 2039.1659,-140.991"/>
<polygon fill="#000000" stroke="#000000" points="2035.6659,-140.9909 2039.1659,-150.991 2042.6659,-140.991 2035.6659,-140.9909"/>
</g>
<!-- BillingComponent -->
<g id="node16" class="node">
<title>BillingComponent</title>
<polygon fill="#ffffb3" stroke="#000000" points="1881.2316,-122 1760.7684,-122 1760.7684,-86 1881.2316,-86 1881.2316,-122"/>
<text text-anchor="middle" x="1821" y="-99.8" font-family="Times,serif" font-size="14.00" fill="#000000">BillingComponent</text>
</g>
<!-- BillingComponent&#45;&gt;AppModule -->
<g id="edge16" class="edge">
<title>BillingComponent&#45;&gt;AppModule</title>
<path fill="none" stroke="#000000" d="M1821,-122.0511C1821,-136.373 1821,-154 1821,-154 1821,-154 2011.1231,-154 2011.1231,-154"/>
<polygon fill="#000000" stroke="#000000" points="2011.1231,-157.5001 2021.1231,-154 2011.1231,-150.5001 2011.1231,-157.5001"/>
</g>
<!-- HelpItemComponent -->
<g id="node17" class="node">
<title>HelpItemComponent</title>
<polygon fill="#ffffb3" stroke="#000000" points="1743.2008,-122 1608.7992,-122 1608.7992,-86 1743.2008,-86 1743.2008,-122"/>
<text text-anchor="middle" x="1676" y="-99.8" font-family="Times,serif" font-size="14.00" fill="#000000">HelpItemComponent</text>
</g>
<!-- HelpItemComponent&#45;&gt;AppModule -->
<g id="edge17" class="edge">
<title>HelpItemComponent&#45;&gt;AppModule</title>
<path fill="none" stroke="#000000" d="M1676,-122.2396C1676,-137.5706 1676,-157 1676,-157 1676,-157 2011.2165,-157 2011.2165,-157"/>
<polygon fill="#000000" stroke="#000000" points="2011.2166,-160.5001 2021.2165,-157 2011.2165,-153.5001 2011.2166,-160.5001"/>
</g>
<!-- StopItemComponent -->
<g id="node18" class="node">
<title>StopItemComponent</title>
<polygon fill="#ffffb3" stroke="#000000" points="1591.1624,-122 1458.8376,-122 1458.8376,-86 1591.1624,-86 1591.1624,-122"/>
<text text-anchor="middle" x="1525" y="-99.8" font-family="Times,serif" font-size="14.00" fill="#000000">StopItemComponent</text>
</g>
<!-- StopItemComponent&#45;&gt;AppModule -->
<g id="edge18" class="edge">
<title>StopItemComponent&#45;&gt;AppModule</title>
<path fill="none" stroke="#000000" d="M1525,-122.0091C1525,-138.0494 1525,-159 1525,-159 1525,-159 2011.2317,-159 2011.2317,-159"/>
<polygon fill="#000000" stroke="#000000" points="2011.2318,-162.5001 2021.2317,-159 2011.2317,-155.5001 2011.2318,-162.5001"/>
</g>
<!-- AppComponent  -->
<g id="node26" class="node">
<title>AppComponent </title>
<polygon fill="#80b1d3" stroke="#000000" points="2117.439,-252 2008.561,-252 2008.561,-216 2117.439,-216 2117.439,-252"/>
<text text-anchor="middle" x="2063" y="-229.8" font-family="Times,serif" font-size="14.00" fill="#000000">AppComponent </text>
</g>
<!-- AppModule&#45;&gt;AppComponent  -->
<g id="edge25" class="edge">
<title>AppModule&#45;&gt;AppComponent </title>
<path fill="none" stroke="#000000" stroke-dasharray="1,5" d="M2063,-187.1061C2063,-187.1061 2063,-205.991 2063,-205.991"/>
<polygon fill="#000000" stroke="#000000" points="2059.5001,-205.9909 2063,-215.991 2066.5001,-205.991 2059.5001,-205.9909"/>
</g>
<!-- BrowserModule -->
<g id="node20" class="node">
<title>BrowserModule</title>
<polygon fill="#8dd3c7" stroke="#000000" points="1435.4734,-122 1432.4734,-126 1411.4734,-126 1408.4734,-122 1328.5266,-122 1328.5266,-86 1435.4734,-86 1435.4734,-122"/>
<text text-anchor="middle" x="1382" y="-99.8" font-family="Times,serif" font-size="14.00" fill="#000000">BrowserModule</text>
</g>
<!-- BrowserModule&#45;&gt;AppModule -->
<g id="edge19" class="edge">
<title>BrowserModule&#45;&gt;AppModule</title>
<path fill="none" stroke="#000000" d="M1382,-122.0336C1382,-139.0597 1382,-162 1382,-162 1382,-162 2011.1703,-162 2011.1703,-162"/>
<polygon fill="#000000" stroke="#000000" points="2011.1703,-165.5001 2021.1703,-162 2011.1702,-158.5001 2011.1703,-165.5001"/>
</g>
<!-- FormsModule -->
<g id="node21" class="node">
<title>FormsModule</title>
<polygon fill="#8dd3c7" stroke="#000000" points="1310.8288,-122 1307.8288,-126 1286.8288,-126 1283.8288,-122 1215.1712,-122 1215.1712,-86 1310.8288,-86 1310.8288,-122"/>
<text text-anchor="middle" x="1263" y="-99.8" font-family="Times,serif" font-size="14.00" fill="#000000">FormsModule</text>
</g>
<!-- FormsModule&#45;&gt;AppModule -->
<g id="edge20" class="edge">
<title>FormsModule&#45;&gt;AppModule</title>
<path fill="none" stroke="#000000" d="M1263,-122.002C1263,-139.6754 1263,-164 1263,-164 1263,-164 2011.1149,-164 2011.1149,-164"/>
<polygon fill="#000000" stroke="#000000" points="2011.1149,-167.5001 2021.1149,-164 2011.1149,-160.5001 2011.1149,-167.5001"/>
</g>
<!-- HttpModule -->
<g id="node22" class="node">
<title>HttpModule</title>
<polygon fill="#8dd3c7" stroke="#000000" points="1197.4387,-122 1194.4387,-126 1173.4387,-126 1170.4387,-122 1112.5613,-122 1112.5613,-86 1197.4387,-86 1197.4387,-122"/>
<text text-anchor="middle" x="1155" y="-99.8" font-family="Times,serif" font-size="14.00" fill="#000000">HttpModule</text>
</g>
<!-- HttpModule&#45;&gt;AppModule -->
<g id="edge21" class="edge">
<title>HttpModule&#45;&gt;AppModule</title>
<path fill="none" stroke="#000000" d="M1155,-122.2222C1155,-140.8285 1155,-167 1155,-167 1155,-167 2011.3265,-167 2011.3265,-167"/>
<polygon fill="#000000" stroke="#000000" points="2011.3265,-170.5001 2021.3265,-167 2011.3264,-163.5001 2011.3265,-170.5001"/>
</g>
<!-- AngularFireModule.initializeApp(args) -->
<g id="node23" class="node">
<title>AngularFireModule.initializeApp(args)</title>
<polygon fill="#8dd3c7" stroke="#000000" points="1094.7057,-122 1091.7057,-126 1070.7057,-126 1067.7057,-122 857.2943,-122 857.2943,-86 1094.7057,-86 1094.7057,-122"/>
<text text-anchor="middle" x="976" y="-99.8" font-family="Times,serif" font-size="14.00" fill="#000000">AngularFireModule.initializeApp(args)</text>
</g>
<!-- AngularFireModule.initializeApp(args)&#45;&gt;AppModule -->
<g id="edge22" class="edge">
<title>AngularFireModule.initializeApp(args)&#45;&gt;AppModule</title>
<path fill="none" stroke="#000000" d="M976,-122.1061C976,-141.3391 976,-169 976,-169 976,-169 2011.0544,-169 2011.0544,-169"/>
<polygon fill="#000000" stroke="#000000" points="2011.0544,-172.5001 2021.0544,-169 2011.0543,-165.5001 2011.0544,-172.5001"/>
</g>
<!-- routing -->
<g id="node24" class="node">
<title>routing</title>
<polygon fill="#8dd3c7" stroke="#000000" points="839.4435,-122 836.4435,-126 815.4435,-126 812.4435,-122 782.5565,-122 782.5565,-86 839.4435,-86 839.4435,-122"/>
<text text-anchor="middle" x="811" y="-99.8" font-family="Times,serif" font-size="14.00" fill="#000000">routing</text>
</g>
<!-- routing&#45;&gt;AppModule -->
<g id="edge23" class="edge">
<title>routing&#45;&gt;AppModule</title>
<path fill="none" stroke="#000000" d="M811,-122.2228C811,-142.3652 811,-172 811,-172 811,-172 2010.9857,-172 2010.9857,-172"/>
<polygon fill="#000000" stroke="#000000" points="2010.9858,-175.5001 2020.9857,-172 2010.9857,-168.5001 2010.9858,-175.5001"/>
</g>
<!-- AgmCoreModule.forRoot(args) -->
<g id="node25" class="node">
<title>AgmCoreModule.forRoot(args)</title>
<polygon fill="#8dd3c7" stroke="#000000" points="765.4487,-122 762.4487,-126 741.4487,-126 738.4487,-122 570.5513,-122 570.5513,-86 765.4487,-86 765.4487,-122"/>
<text text-anchor="middle" x="668" y="-99.8" font-family="Times,serif" font-size="14.00" fill="#000000">AgmCoreModule.forRoot(args)</text>
</g>
<!-- AgmCoreModule.forRoot(args)&#45;&gt;AppModule -->
<g id="edge24" class="edge">
<title>AgmCoreModule.forRoot(args)&#45;&gt;AppModule</title>
<path fill="none" stroke="#000000" d="M668,-122.2843C668,-143.3211 668,-175 668,-175 668,-175 2011.2504,-175 2011.2504,-175"/>
<polygon fill="#000000" stroke="#000000" points="2011.2505,-178.5001 2021.2504,-175 2011.2504,-171.5001 2011.2505,-178.5001"/>
</g>
<!-- UserService -->
<g id="node27" class="node">
<title>UserService</title>
<ellipse fill="#fdb462" stroke="#000000" cx="489" cy="-104" rx="58.4415" ry="18"/>
<text text-anchor="middle" x="489" y="-99.8" font-family="Times,serif" font-size="14.00" fill="#000000">UserService</text>
</g>
<!-- UserService&#45;&gt;AppModule -->
<g id="edge26" class="edge">
<title>UserService&#45;&gt;AppModule</title>
<path fill="none" stroke="#000000" d="M489,-122.0449C489,-143.6623 489,-177 489,-177 489,-177 2011.3047,-177 2011.3047,-177"/>
<polygon fill="#000000" stroke="#000000" points="2011.3048,-180.5001 2021.3047,-177 2011.3047,-173.5001 2011.3048,-180.5001"/>
</g>
<!-- OrderService -->
<g id="node28" class="node">
<title>OrderService</title>
<ellipse fill="#fdb462" stroke="#000000" cx="350" cy="-104" rx="62.516" ry="18"/>
<text text-anchor="middle" x="350" y="-99.8" font-family="Times,serif" font-size="14.00" fill="#000000">OrderService</text>
</g>
<!-- OrderService&#45;&gt;AppModule -->
<g id="edge27" class="edge">
<title>OrderService&#45;&gt;AppModule</title>
<path fill="none" stroke="#000000" d="M350,-122.0109C350,-144.4852 350,-180 350,-180 350,-180 2011.0813,-180 2011.0813,-180"/>
<polygon fill="#000000" stroke="#000000" points="2011.0814,-183.5001 2021.0813,-180 2011.0813,-176.5001 2011.0814,-183.5001"/>
</g>
<!-- AuthService -->
<g id="node29" class="node">
<title>AuthService</title>
<ellipse fill="#fdb462" stroke="#000000" cx="210" cy="-104" rx="59.1083" ry="18"/>
<text text-anchor="middle" x="210" y="-99.8" font-family="Times,serif" font-size="14.00" fill="#000000">AuthService</text>
</g>
<!-- AuthService&#45;&gt;AppModule -->
<g id="edge28" class="edge">
<title>AuthService&#45;&gt;AppModule</title>
<path fill="none" stroke="#000000" d="M210,-122.0908C210,-145.1328 210,-182 210,-182 210,-182 2011.2588,-182 2011.2588,-182"/>
<polygon fill="#000000" stroke="#000000" points="2011.2588,-185.5001 2021.2588,-182 2011.2587,-178.5001 2011.2588,-185.5001"/>
</g>
<!-- AuthGuard -->
<g id="node30" class="node">
<title>AuthGuard</title>
<ellipse fill="#fdb462" stroke="#000000" cx="78" cy="-104" rx="54.4566" ry="18"/>
<text text-anchor="middle" x="78" y="-99.8" font-family="Times,serif" font-size="14.00" fill="#000000">AuthGuard</text>
</g>
<!-- AuthGuard&#45;&gt;AppModule -->
<g id="edge29" class="edge">
<title>AuthGuard&#45;&gt;AppModule</title>
<path fill="none" stroke="#000000" d="M78,-122.3802C78,-146.2785 78,-185 78,-185 78,-185 2011.0825,-185 2011.0825,-185"/>
<polygon fill="#000000" stroke="#000000" points="2011.0825,-188.5001 2021.0825,-185 2011.0824,-181.5001 2011.0825,-188.5001"/>
</g>
</g>
</svg>
